<svg width="17" height="18" viewBox="0 0 17 18" fill="none" xmlns="http://www.w3.org/2000/svg">
<path d="M12.0532 6.24621L13.386 6.21101L13.4212 7.54388L12.0884 7.57908L12.1236 8.91195L10.7907 8.94716L10.8259 10.28L9.49304 10.3152L9.52825 11.6481L8.19538 11.6833L8.16017 10.3504L6.82731 10.3857L6.7921 9.05278L5.45923 9.08799L5.42402 7.75512L4.09115 7.79033L4.05595 6.45746L5.38881 6.42225L5.42402 7.75512L6.75689 7.71991L6.7921 9.05278L8.12497 9.01757L8.16017 10.3504L9.49304 10.3152L9.45783 8.98237L10.7907 8.94716L10.7555 7.61429L12.0884 7.57908L12.0532 6.24621Z" fill="#EB4700"/>
</svg>
