<svg width="41" height="41" viewBox="0 0 41 41" fill="none" xmlns="http://www.w3.org/2000/svg">
<path d="M20.7504 20.5022C20.7504 20.5022 20.7504 20.5022 20.7499 20.5022C20.7499 20.5022 20.7499 20.5022 20.7495 20.5022C20.749 20.5022 20.7495 20.5022 20.7495 20.5018C20.7495 20.5018 20.7495 20.5018 20.7495 20.5013C20.7495 20.5008 20.7495 20.5013 20.7495 20.5008C20.7495 20.5004 20.7495 20.5008 20.7495 20.5004C20.7495 20.4999 20.7495 20.5004 20.7499 20.5004C20.7499 20.5004 20.7499 20.5004 20.7504 20.5004C20.7508 20.5004 20.7504 20.5004 20.7508 20.5004C20.7513 20.5004 20.7508 20.5004 20.7513 20.5004C20.7518 20.5004 20.7513 20.5004 20.7513 20.5008C20.7513 20.5008 20.7513 20.5008 20.7513 20.5013C20.7513 20.5018 20.7513 20.5013 20.7513 20.5018C20.7513 20.5018 20.7513 20.5018 20.7513 20.5022C20.7513 20.5027 20.7513 20.5022 20.7508 20.5022C20.7508 20.5022 20.7508 20.5022 20.7504 20.5022ZM20.7504 20.499C20.7504 20.499 20.7504 20.499 20.7499 20.499C20.7499 20.499 20.7499 20.499 20.7495 20.499C20.749 20.499 20.7495 20.499 20.7495 20.4995C20.7495 20.4995 20.7495 20.4995 20.7495 20.4999C20.7495 20.5004 20.7495 20.4999 20.7495 20.5004C20.7495 20.5004 20.7495 20.5004 20.7495 20.5008C20.7495 20.5008 20.7495 20.5008 20.7499 20.5008C20.7499 20.5008 20.7499 20.5008 20.7504 20.5008C20.7508 20.5008 20.7504 20.5008 20.7508 20.5008C20.7508 20.5008 20.7508 20.5008 20.7513 20.5008C20.7518 20.5008 20.7513 20.5008 20.7513 20.5004C20.7513 20.5004 20.7513 20.5004 20.7513 20.4999C20.7513 20.4995 20.7513 20.4999 20.7513 20.4995C20.7513 20.4995 20.7513 20.4995 20.7513 20.499C20.7513 20.499 20.7513 20.499 20.7508 20.499C20.7508 20.499 20.7508 20.499 20.7504 20.499Z" fill="white"/>
<path d="M20.7478 20.4999C20.7478 20.4999 20.7478 20.4999 20.7478 20.4995C20.7478 20.4995 20.7478 20.4995 20.7485 20.4992C20.7492 20.4988 20.7489 20.4992 20.7492 20.4992C20.7492 20.4992 20.75 20.4992 20.7503 20.4992C20.7507 20.4992 20.751 20.4992 20.7514 20.4992H20.7521C20.7521 20.4992 20.7525 20.4992 20.7528 20.4995C20.7528 20.4995 20.7528 20.4995 20.7528 20.4999C20.7528 20.5003 20.7528 20.4999 20.7528 20.5003C20.7528 20.5003 20.7528 20.5003 20.7521 20.5006C20.7514 20.501 20.7517 20.5006 20.7514 20.5006C20.7514 20.5006 20.7507 20.5006 20.7503 20.5006C20.75 20.5006 20.7496 20.5006 20.7492 20.5006H20.7485C20.7485 20.5006 20.7482 20.5006 20.7478 20.5003C20.7478 20.5003 20.7478 20.5003 20.7478 20.4999ZM20.7528 20.4999C20.7528 20.4999 20.7528 20.4999 20.7528 20.4995C20.7528 20.4995 20.7528 20.4995 20.7525 20.4992C20.7521 20.4988 20.7521 20.4992 20.7517 20.4992C20.7517 20.4992 20.751 20.4992 20.7507 20.4992C20.7503 20.4992 20.75 20.4992 20.7496 20.4992H20.7489C20.7489 20.4992 20.7485 20.4992 20.7485 20.4995C20.7485 20.4995 20.7485 20.4995 20.7485 20.4999C20.7485 20.5003 20.7485 20.4999 20.7485 20.5003C20.7485 20.5003 20.7485 20.5003 20.7489 20.5006C20.7492 20.501 20.7492 20.5006 20.7496 20.5006C20.7496 20.5006 20.7503 20.5006 20.7507 20.5006C20.751 20.5006 20.7514 20.5006 20.7517 20.5006H20.7525C20.7525 20.5006 20.7528 20.5006 20.7528 20.5003C20.7528 20.5003 20.7528 20.5003 20.7528 20.4999Z" fill="white"/>
<path d="M20.7503 20.4976C20.7503 20.4976 20.751 20.4976 20.7514 20.4976C20.7514 20.4976 20.7521 20.4976 20.7521 20.4983C20.7521 20.499 20.7525 20.4986 20.7528 20.499C20.7528 20.499 20.7528 20.4997 20.7528 20.5001C20.7528 20.5004 20.7528 20.5008 20.7528 20.5011C20.7528 20.5011 20.7528 20.5019 20.7521 20.5019C20.7514 20.5019 20.7517 20.5022 20.7514 20.5026C20.7514 20.5026 20.7507 20.5026 20.7503 20.5026C20.75 20.5026 20.7496 20.5026 20.7492 20.5026C20.7492 20.5026 20.7485 20.5026 20.7485 20.5019C20.7485 20.5011 20.7482 20.5015 20.7478 20.5011C20.7478 20.5011 20.7478 20.5004 20.7478 20.5001C20.7478 20.4997 20.7478 20.4993 20.7478 20.499C20.7478 20.499 20.7478 20.4983 20.7485 20.4983C20.7492 20.4983 20.7489 20.4979 20.7492 20.4976C20.7492 20.4976 20.75 20.4976 20.7503 20.4976ZM20.7503 20.5026C20.7503 20.5026 20.751 20.5026 20.7514 20.5026C20.7514 20.5026 20.7521 20.5026 20.7521 20.5022C20.7521 20.5019 20.7525 20.5019 20.7525 20.5015C20.7525 20.5015 20.7525 20.5008 20.7525 20.5004C20.7525 20.5001 20.7525 20.4997 20.7525 20.4993C20.7525 20.4993 20.7525 20.4986 20.7521 20.4986C20.7521 20.4986 20.7517 20.4983 20.7514 20.4983C20.7514 20.4983 20.7507 20.4983 20.7503 20.4983C20.75 20.4983 20.7496 20.4983 20.7492 20.4983C20.7492 20.4983 20.7485 20.4983 20.7485 20.4986C20.7485 20.499 20.7482 20.499 20.7482 20.4993C20.7482 20.4993 20.7482 20.5001 20.7482 20.5004C20.7482 20.5008 20.7482 20.5011 20.7482 20.5015C20.7482 20.5015 20.7482 20.5022 20.7485 20.5022C20.7485 20.5022 20.7489 20.5026 20.7492 20.5026C20.7492 20.5026 20.75 20.5026 20.7503 20.5026Z" fill="white"/>
<path d="M20.7547 20.4999C20.7547 20.4999 20.7547 20.5006 20.7544 20.5009C20.7544 20.5009 20.7537 20.5016 20.7533 20.5016C20.753 20.5016 20.7523 20.5019 20.7517 20.5023C20.751 20.5023 20.7503 20.5023 20.7497 20.5023C20.749 20.5023 20.7483 20.5023 20.7476 20.5023C20.747 20.5023 20.7466 20.5023 20.746 20.5016C20.7453 20.5009 20.7453 20.5012 20.745 20.5009C20.745 20.5009 20.7446 20.5002 20.7446 20.4999C20.7446 20.4996 20.7446 20.4992 20.745 20.4989C20.745 20.4989 20.7456 20.4982 20.746 20.4982C20.7463 20.4982 20.747 20.4979 20.7476 20.4976C20.7483 20.4976 20.749 20.4976 20.7497 20.4976C20.7503 20.4976 20.751 20.4976 20.7517 20.4976C20.7523 20.4976 20.7527 20.4976 20.7533 20.4982C20.754 20.4989 20.754 20.4986 20.7544 20.4989C20.7544 20.4989 20.7547 20.4996 20.7547 20.4999ZM20.7453 20.4999C20.7453 20.4999 20.7453 20.5006 20.7456 20.5009C20.7456 20.5009 20.7463 20.5016 20.7466 20.5016C20.747 20.5016 20.7476 20.5019 20.748 20.5019C20.7487 20.5019 20.7493 20.5019 20.7497 20.5019C20.75 20.5019 20.751 20.5019 20.7513 20.5019C20.752 20.5019 20.7523 20.5019 20.7527 20.5016C20.753 20.5016 20.7533 20.5012 20.7537 20.5009C20.7537 20.5009 20.754 20.5002 20.754 20.4999C20.754 20.4996 20.754 20.4992 20.7537 20.4989C20.7537 20.4989 20.753 20.4982 20.7527 20.4982C20.7523 20.4982 20.7517 20.4979 20.7513 20.4979C20.7507 20.4979 20.75 20.4979 20.7497 20.4979C20.7493 20.4979 20.7483 20.4979 20.748 20.4979C20.7473 20.4979 20.747 20.4979 20.7466 20.4982C20.7463 20.4982 20.746 20.4986 20.7456 20.4989C20.7456 20.4989 20.7453 20.4996 20.7453 20.4999Z" fill="white"/>
<path d="M20.7501 20.5047C20.7501 20.5047 20.7488 20.5047 20.7481 20.5044C20.7475 20.5044 20.7471 20.5037 20.7465 20.5033C20.7458 20.503 20.7458 20.5023 20.7455 20.5017C20.7455 20.501 20.7451 20.5003 20.7451 20.4997C20.7451 20.499 20.7451 20.4983 20.7455 20.4976C20.7455 20.497 20.7461 20.4966 20.7465 20.496C20.7468 20.4953 20.7475 20.4953 20.7481 20.495C20.7488 20.495 20.7495 20.4946 20.7501 20.4946C20.7508 20.4946 20.7515 20.4946 20.7522 20.495C20.7528 20.495 20.7532 20.4956 20.7538 20.496C20.7545 20.4963 20.7545 20.497 20.7548 20.4976C20.7548 20.4983 20.7552 20.499 20.7552 20.4997C20.7552 20.5003 20.7552 20.501 20.7548 20.5017C20.7548 20.5023 20.7542 20.5027 20.7538 20.5033C20.7535 20.504 20.7528 20.504 20.7522 20.5044C20.7515 20.5044 20.7508 20.5047 20.7501 20.5047ZM20.7501 20.4953C20.7501 20.4953 20.7488 20.4953 20.7485 20.4956C20.7478 20.4956 20.7475 20.4963 20.7471 20.4966C20.7468 20.497 20.7465 20.4976 20.7461 20.498C20.7461 20.4987 20.7458 20.4993 20.7458 20.4997C20.7458 20.5 20.7458 20.501 20.7461 20.5013C20.7461 20.502 20.7468 20.5023 20.7471 20.5027C20.7475 20.503 20.7481 20.5033 20.7485 20.5037C20.7491 20.5037 20.7498 20.504 20.7501 20.504C20.7505 20.504 20.7515 20.504 20.7518 20.5037C20.7525 20.5037 20.7528 20.503 20.7532 20.5027C20.7535 20.5023 20.7538 20.5017 20.7542 20.5013C20.7542 20.5007 20.7545 20.5 20.7545 20.4997C20.7545 20.4993 20.7545 20.4983 20.7542 20.498C20.7542 20.4973 20.7535 20.497 20.7532 20.4966C20.7528 20.4963 20.7522 20.496 20.7518 20.4956C20.7512 20.4956 20.7505 20.4953 20.7501 20.4953Z" fill="white"/>
<path d="M20.7402 20.5001C20.7402 20.5001 20.7402 20.4988 20.7409 20.4981C20.7412 20.4975 20.7422 20.4971 20.7429 20.4965C20.7436 20.4958 20.7449 20.4958 20.7459 20.4955C20.7473 20.4955 20.7483 20.4951 20.7496 20.4951C20.751 20.4951 20.7523 20.4951 20.7533 20.4955C20.7543 20.4955 20.7557 20.4961 20.7563 20.4965C20.757 20.4968 20.758 20.4975 20.7583 20.4981C20.759 20.4988 20.759 20.4995 20.759 20.5001C20.759 20.5008 20.759 20.5015 20.7583 20.5022C20.758 20.5028 20.757 20.5032 20.7563 20.5038C20.7557 20.5045 20.7543 20.5045 20.7533 20.5048C20.752 20.5048 20.751 20.5052 20.7496 20.5052C20.7483 20.5052 20.7469 20.5052 20.7459 20.5048C20.7449 20.5048 20.7436 20.5042 20.7429 20.5038C20.7422 20.5035 20.7412 20.5028 20.7409 20.5022C20.7402 20.5015 20.7402 20.5008 20.7402 20.5001ZM20.7593 20.5001C20.7593 20.5001 20.7593 20.4988 20.7587 20.4985C20.7583 20.4978 20.7577 20.4975 20.7567 20.4971C20.7557 20.4968 20.7547 20.4965 20.7536 20.4961C20.7526 20.4961 20.7513 20.4958 20.75 20.4958C20.7486 20.4958 20.7476 20.4958 20.7463 20.4961C20.7453 20.4961 20.7443 20.4968 20.7433 20.4971C20.7422 20.4975 20.7416 20.4981 20.7412 20.4985C20.7409 20.4991 20.7406 20.4998 20.7406 20.5001C20.7406 20.5005 20.7406 20.5015 20.7412 20.5018C20.7416 20.5025 20.7422 20.5028 20.7433 20.5032C20.7443 20.5035 20.7453 20.5038 20.7463 20.5042C20.7473 20.5042 20.7486 20.5045 20.75 20.5045C20.7513 20.5045 20.7523 20.5045 20.7536 20.5042C20.7547 20.5042 20.7557 20.5035 20.7567 20.5032C20.7577 20.5028 20.7583 20.5022 20.7587 20.5018C20.759 20.5012 20.7593 20.5005 20.7593 20.5001Z" fill="white"/>
<path d="M20.7501 20.4902C20.7501 20.4902 20.7528 20.4902 20.7538 20.4909C20.7548 20.4912 20.7561 20.4922 20.7568 20.4929C20.7575 20.4936 20.7585 20.4949 20.7588 20.4959C20.7595 20.4973 20.7595 20.4983 20.7595 20.4996C20.7595 20.501 20.7595 20.5023 20.7588 20.5033C20.7585 20.5043 20.7575 20.5057 20.7568 20.5063C20.7561 20.507 20.7548 20.508 20.7538 20.5083C20.7525 20.509 20.7515 20.509 20.7501 20.509C20.7488 20.509 20.7474 20.509 20.7464 20.5083C20.7454 20.508 20.7441 20.507 20.7434 20.5063C20.7427 20.5057 20.7417 20.5043 20.7414 20.5033C20.7407 20.502 20.7407 20.501 20.7407 20.4996C20.7407 20.4983 20.7407 20.4969 20.7414 20.4959C20.7417 20.4949 20.7427 20.4936 20.7434 20.4929C20.7441 20.4922 20.7454 20.4912 20.7464 20.4909C20.7478 20.4902 20.7488 20.4902 20.7501 20.4902ZM20.7501 20.5093C20.7501 20.5093 20.7525 20.5093 20.7538 20.5087C20.7548 20.5083 20.7558 20.5077 20.7568 20.5067C20.7578 20.5057 20.7585 20.5047 20.7588 20.5036C20.7592 20.5026 20.7595 20.5013 20.7595 20.5C20.7595 20.4986 20.7595 20.4976 20.7588 20.4963C20.7585 20.4953 20.7578 20.4943 20.7568 20.4933C20.7558 20.4922 20.7548 20.4916 20.7538 20.4912C20.7528 20.4909 20.7515 20.4906 20.7501 20.4906C20.7488 20.4906 20.7478 20.4906 20.7464 20.4912C20.7454 20.4916 20.7444 20.4922 20.7434 20.4933C20.7424 20.4943 20.7417 20.4953 20.7414 20.4963C20.7411 20.4973 20.7407 20.4986 20.7407 20.5C20.7407 20.5013 20.7407 20.5023 20.7414 20.5036C20.7417 20.5047 20.7424 20.5057 20.7434 20.5067C20.7444 20.5077 20.7454 20.5083 20.7464 20.5087C20.7474 20.509 20.7488 20.5093 20.7501 20.5093Z" fill="white"/>
<path d="M20.7696 20.5001C20.7696 20.5001 20.7689 20.5028 20.7679 20.5038C20.7669 20.5048 20.7656 20.5061 20.7639 20.5068C20.7622 20.5075 20.7599 20.5085 20.7579 20.5088C20.7555 20.5095 20.7528 20.5095 20.7502 20.5095C20.7475 20.5095 20.7451 20.5095 20.7424 20.5088C20.7401 20.5085 20.7381 20.5075 20.7364 20.5068C20.7347 20.5061 20.7334 20.5048 20.7324 20.5038C20.7314 20.5025 20.7307 20.5015 20.7307 20.5001C20.7307 20.4988 20.7314 20.4974 20.7324 20.4964C20.7334 20.4954 20.7347 20.4941 20.7364 20.4934C20.7381 20.4927 20.7404 20.4917 20.7424 20.4914C20.7448 20.4907 20.7475 20.4907 20.7502 20.4907C20.7528 20.4907 20.7552 20.4907 20.7579 20.4914C20.7602 20.4917 20.7622 20.4927 20.7639 20.4934C20.7656 20.4941 20.7669 20.4954 20.7679 20.4964C20.7689 20.4978 20.7696 20.4988 20.7696 20.5001ZM20.7314 20.5001C20.7314 20.5001 20.7317 20.5025 20.7327 20.5038C20.7337 20.5048 20.7351 20.5058 20.7367 20.5068C20.7384 20.5078 20.7404 20.5085 20.7428 20.5088C20.7451 20.5092 20.7475 20.5095 20.7502 20.5095C20.7528 20.5095 20.7552 20.5095 20.7575 20.5088C20.7599 20.5085 20.7619 20.5078 20.7636 20.5068C20.7652 20.5058 20.7666 20.5048 20.7676 20.5038C20.7686 20.5028 20.7689 20.5015 20.7689 20.5001C20.7689 20.4988 20.7686 20.4978 20.7676 20.4964C20.7666 20.4954 20.7652 20.4944 20.7636 20.4934C20.7619 20.4924 20.7599 20.4917 20.7575 20.4914C20.7552 20.4911 20.7528 20.4907 20.7502 20.4907C20.7475 20.4907 20.7451 20.4907 20.7428 20.4914C20.7404 20.4917 20.7384 20.4924 20.7367 20.4934C20.7351 20.4944 20.7337 20.4954 20.7327 20.4964C20.7317 20.4974 20.7314 20.4988 20.7314 20.5001Z" fill="white"/>
<path d="M20.7502 20.5194C20.7475 20.5194 20.7451 20.5187 20.7424 20.5177C20.7401 20.5167 20.7381 20.5153 20.7364 20.5137C20.7347 20.512 20.7334 20.5096 20.7324 20.5076C20.7314 20.5053 20.7307 20.5026 20.7307 20.4999C20.7307 20.4972 20.7314 20.4949 20.7324 20.4922C20.7334 20.4899 20.7347 20.4878 20.7364 20.4862C20.7381 20.4845 20.7404 20.4832 20.7424 20.4821C20.7448 20.4811 20.7475 20.4805 20.7502 20.4805C20.7528 20.4805 20.7552 20.4811 20.7579 20.4821C20.7602 20.4832 20.7622 20.4845 20.7639 20.4862C20.7656 20.4878 20.7669 20.4902 20.7679 20.4922C20.7689 20.4945 20.7696 20.4972 20.7696 20.4999C20.7696 20.5026 20.7689 20.5049 20.7679 20.5076C20.7669 20.51 20.7656 20.512 20.7639 20.5137C20.7622 20.5153 20.7599 20.5167 20.7579 20.5177C20.7555 20.5187 20.7528 20.5194 20.7502 20.5194ZM20.7502 20.4811C20.7475 20.4811 20.7451 20.4815 20.7428 20.4825C20.7404 20.4835 20.7384 20.4848 20.7367 20.4865C20.7351 20.4882 20.7337 20.4902 20.7327 20.4925C20.7317 20.4949 20.7314 20.4972 20.7314 20.4999C20.7314 20.5026 20.7317 20.5049 20.7327 20.5073C20.7337 20.5096 20.7351 20.5116 20.7367 20.5133C20.7384 20.515 20.7404 20.5163 20.7428 20.5173C20.7451 20.5184 20.7475 20.5187 20.7502 20.5187C20.7528 20.5187 20.7552 20.5184 20.7575 20.5173C20.7599 20.5163 20.7619 20.515 20.7636 20.5133C20.7652 20.5116 20.7666 20.5096 20.7676 20.5073C20.7686 20.5049 20.7689 20.5026 20.7689 20.4999C20.7689 20.4972 20.7686 20.4949 20.7676 20.4925C20.7666 20.4902 20.7652 20.4882 20.7636 20.4865C20.7619 20.4848 20.7599 20.4835 20.7575 20.4825C20.7552 20.4815 20.7528 20.4811 20.7502 20.4811Z" fill="white"/>
<path d="M20.7112 20.4999C20.7112 20.4972 20.7122 20.4949 20.7142 20.4922C20.7162 20.4899 20.7189 20.4878 20.7226 20.4862C20.7263 20.4845 20.7303 20.4832 20.735 20.4821C20.7397 20.4811 20.7447 20.4805 20.7501 20.4805C20.7554 20.4805 20.7605 20.4811 20.7652 20.4821C20.7699 20.4832 20.7739 20.4845 20.7776 20.4862C20.7813 20.4878 20.7839 20.4902 20.7859 20.4922C20.788 20.4945 20.789 20.4972 20.789 20.4999C20.789 20.5026 20.788 20.5049 20.7859 20.5076C20.7839 20.51 20.7813 20.512 20.7776 20.5137C20.7739 20.5153 20.7699 20.5167 20.7652 20.5177C20.7605 20.5187 20.7554 20.5194 20.7501 20.5194C20.7447 20.5194 20.7397 20.5187 20.735 20.5177C20.7303 20.5167 20.7263 20.5153 20.7226 20.5137C20.7189 20.512 20.7162 20.5096 20.7142 20.5076C20.7122 20.5053 20.7112 20.5026 20.7112 20.4999ZM20.7876 20.4999C20.7876 20.4972 20.7866 20.4949 20.7846 20.4925C20.7826 20.4902 20.7799 20.4882 20.7766 20.4865C20.7732 20.4848 20.7692 20.4835 20.7645 20.4825C20.7598 20.4815 20.7551 20.4811 20.7497 20.4811C20.7444 20.4811 20.7397 20.4815 20.735 20.4825C20.7306 20.4835 20.7266 20.4848 20.7229 20.4865C20.7196 20.4882 20.7169 20.4902 20.7149 20.4925C20.7129 20.4949 20.7119 20.4972 20.7119 20.4999C20.7119 20.5026 20.7129 20.5049 20.7149 20.5073C20.7169 20.5096 20.7196 20.5116 20.7229 20.5133C20.7263 20.515 20.7303 20.5163 20.735 20.5173C20.7397 20.5184 20.7444 20.5187 20.7497 20.5187C20.7551 20.5187 20.7598 20.5184 20.7645 20.5173C20.7688 20.5163 20.7729 20.515 20.7766 20.5133C20.7799 20.5116 20.7826 20.5096 20.7846 20.5073C20.7866 20.5049 20.7876 20.5026 20.7876 20.4999Z" fill="white"/>
<path d="M20.7501 20.4609C20.7554 20.4609 20.7605 20.4619 20.7652 20.464C20.7699 20.466 20.7739 20.4686 20.7776 20.4723C20.7813 20.476 20.7839 20.48 20.7859 20.4847C20.788 20.4894 20.789 20.4945 20.789 20.4998C20.789 20.5052 20.788 20.5102 20.7859 20.5149C20.7839 20.5196 20.7813 20.5236 20.7776 20.5273C20.7739 20.531 20.7699 20.5337 20.7652 20.5357C20.7605 20.5377 20.7554 20.5387 20.7501 20.5387C20.7447 20.5387 20.7397 20.5377 20.735 20.5357C20.7303 20.5337 20.7263 20.531 20.7226 20.5273C20.7189 20.5236 20.7162 20.5196 20.7142 20.5149C20.7122 20.5102 20.7112 20.5052 20.7112 20.4998C20.7112 20.4945 20.7122 20.4894 20.7142 20.4847C20.7162 20.48 20.7189 20.476 20.7226 20.4723C20.7263 20.4686 20.7303 20.466 20.735 20.464C20.7397 20.4619 20.7447 20.4609 20.7501 20.4609ZM20.7501 20.5374C20.7551 20.5374 20.7601 20.5364 20.7648 20.5344C20.7692 20.5323 20.7732 20.5297 20.7769 20.5263C20.7806 20.523 20.7829 20.5189 20.7849 20.5142C20.787 20.5095 20.788 20.5049 20.788 20.4995C20.788 20.4941 20.787 20.4894 20.7849 20.4847C20.7829 20.4804 20.7802 20.4764 20.7769 20.4727C20.7735 20.4693 20.7695 20.4666 20.7648 20.4646C20.7601 20.4626 20.7554 20.4616 20.7501 20.4616C20.7447 20.4616 20.74 20.4626 20.7353 20.4646C20.731 20.4666 20.7269 20.4693 20.7233 20.4727C20.7196 20.476 20.7172 20.48 20.7152 20.4847C20.7132 20.4894 20.7122 20.4941 20.7122 20.4995C20.7122 20.5049 20.7132 20.5095 20.7152 20.5142C20.7172 20.5186 20.7199 20.5226 20.7233 20.5263C20.7266 20.5297 20.7306 20.5323 20.7353 20.5344C20.74 20.5364 20.7447 20.5374 20.7501 20.5374Z" fill="white"/>
<path d="M20.8274 20.4998C20.8274 20.5052 20.8254 20.5102 20.8214 20.5149C20.8174 20.5196 20.812 20.5236 20.8046 20.5273C20.7973 20.531 20.7892 20.5337 20.7798 20.5357C20.7701 20.5377 20.76 20.5387 20.7497 20.5387C20.7393 20.5387 20.7289 20.5377 20.7195 20.5357C20.7101 20.5337 20.702 20.531 20.6947 20.5273C20.6873 20.5236 20.6819 20.5196 20.6779 20.5149C20.6739 20.5102 20.6719 20.5052 20.6719 20.4998C20.6719 20.4945 20.6739 20.4894 20.6779 20.4847C20.6819 20.48 20.6873 20.476 20.6947 20.4723C20.702 20.4686 20.7101 20.466 20.7195 20.464C20.7292 20.4619 20.7393 20.4609 20.7497 20.4609C20.76 20.4609 20.7704 20.4619 20.7798 20.464C20.7892 20.466 20.7973 20.4686 20.8046 20.4723C20.812 20.476 20.8174 20.48 20.8214 20.4847C20.8254 20.4894 20.8274 20.4945 20.8274 20.4998ZM20.6749 20.4998C20.6749 20.5049 20.6769 20.5099 20.6809 20.5146C20.6846 20.5189 20.69 20.523 20.697 20.5266C20.7041 20.5303 20.7118 20.5327 20.7208 20.5347C20.7302 20.5367 20.7399 20.5377 20.75 20.5377C20.76 20.5377 20.7698 20.5367 20.7792 20.5347C20.7882 20.5327 20.7963 20.53 20.803 20.5266C20.81 20.5233 20.8154 20.5193 20.8191 20.5146C20.8231 20.5099 20.8251 20.5052 20.8251 20.4998C20.8251 20.4945 20.8231 20.4898 20.8191 20.4851C20.8154 20.4807 20.81 20.4767 20.803 20.473C20.7959 20.4693 20.7882 20.467 20.7792 20.465C20.7698 20.4629 20.76 20.4619 20.75 20.4619C20.7399 20.4619 20.7302 20.4629 20.7208 20.465C20.7118 20.467 20.7037 20.4697 20.697 20.473C20.69 20.4764 20.6846 20.4804 20.6809 20.4851C20.6769 20.4898 20.6749 20.4945 20.6749 20.4998Z" fill="white"/>
<path d="M20.7501 20.5774C20.7398 20.5774 20.7294 20.5754 20.72 20.5714C20.7106 20.5674 20.7025 20.562 20.6952 20.5546C20.6878 20.5473 20.6824 20.5392 20.6784 20.5298C20.6744 20.5201 20.6724 20.51 20.6724 20.4997C20.6724 20.4893 20.6744 20.4789 20.6784 20.4695C20.6824 20.4601 20.6878 20.452 20.6952 20.4447C20.7025 20.4373 20.7106 20.4319 20.72 20.4279C20.7297 20.4239 20.7398 20.4219 20.7501 20.4219C20.7605 20.4219 20.7709 20.4239 20.7803 20.4279C20.7897 20.4319 20.7978 20.4373 20.8051 20.4447C20.8125 20.452 20.8179 20.4601 20.8219 20.4695C20.8259 20.4792 20.8279 20.4893 20.8279 20.4997C20.8279 20.51 20.8259 20.5204 20.8219 20.5298C20.8179 20.5392 20.8125 20.5473 20.8051 20.5546C20.7978 20.562 20.7897 20.5674 20.7803 20.5714C20.7706 20.5754 20.7605 20.5774 20.7501 20.5774ZM20.7501 20.4249C20.7401 20.4249 20.7304 20.4269 20.721 20.4309C20.7119 20.4346 20.7039 20.44 20.6972 20.447C20.6905 20.4541 20.6848 20.4618 20.6811 20.4708C20.6771 20.4802 20.675 20.4899 20.675 20.5C20.675 20.51 20.6771 20.5198 20.6811 20.5292C20.6848 20.5382 20.6901 20.5463 20.6972 20.553C20.7042 20.56 20.7119 20.5654 20.721 20.5691C20.7304 20.5731 20.7401 20.5751 20.7501 20.5751C20.7602 20.5751 20.7699 20.5731 20.7793 20.5691C20.7884 20.5654 20.7964 20.56 20.8031 20.553C20.8098 20.5459 20.8155 20.5382 20.8192 20.5292C20.8232 20.5198 20.8252 20.51 20.8252 20.5C20.8252 20.4899 20.8232 20.4802 20.8192 20.4708C20.8155 20.4618 20.8102 20.4537 20.8031 20.447C20.7961 20.44 20.7884 20.4346 20.7793 20.4309C20.7699 20.4269 20.7602 20.4249 20.7501 20.4249Z" fill="white"/>
<path d="M20.5947 20.5001C20.5947 20.4898 20.5988 20.4794 20.6068 20.47C20.6145 20.4606 20.6259 20.4525 20.64 20.4452C20.6541 20.4378 20.6708 20.4324 20.6893 20.4284C20.7084 20.4244 20.7288 20.4224 20.7496 20.4224C20.7704 20.4224 20.7909 20.4244 20.81 20.4284C20.8284 20.4324 20.8452 20.4378 20.8592 20.4452C20.8733 20.4525 20.8847 20.4606 20.8924 20.47C20.9005 20.4797 20.9045 20.4898 20.9045 20.5001C20.9045 20.5105 20.9005 20.5209 20.8924 20.5303C20.8847 20.5397 20.8733 20.5478 20.8592 20.5551C20.8452 20.5625 20.8284 20.5679 20.81 20.5719C20.7909 20.5759 20.7704 20.5779 20.7496 20.5779C20.7288 20.5779 20.7084 20.5759 20.6893 20.5719C20.6708 20.5679 20.6541 20.5625 20.64 20.5551C20.6259 20.5478 20.6145 20.5397 20.6068 20.5303C20.5988 20.5206 20.5947 20.5105 20.5947 20.5001ZM20.8998 20.5001C20.8998 20.4901 20.8958 20.4804 20.8881 20.471C20.8804 20.4619 20.8696 20.4539 20.8559 20.4472C20.8422 20.4405 20.8261 20.4348 20.8083 20.4311C20.7898 20.4271 20.7701 20.425 20.75 20.425C20.7298 20.425 20.7101 20.4271 20.6916 20.4311C20.6738 20.4348 20.6578 20.4401 20.644 20.4472C20.6303 20.4542 20.6195 20.4619 20.6118 20.471C20.6041 20.4804 20.6001 20.4901 20.6001 20.5001C20.6001 20.5102 20.6041 20.5199 20.6118 20.5293C20.6195 20.5384 20.6303 20.5464 20.644 20.5531C20.6578 20.5598 20.6738 20.5655 20.6916 20.5692C20.7101 20.5732 20.7298 20.5752 20.75 20.5752C20.7701 20.5752 20.7898 20.5732 20.8083 20.5692C20.8261 20.5655 20.8422 20.5602 20.8559 20.5531C20.8696 20.5461 20.8804 20.5384 20.8881 20.5293C20.8958 20.5199 20.8998 20.5102 20.8998 20.5001Z" fill="white"/>
<path d="M20.7501 20.3447C20.7712 20.3447 20.7913 20.3488 20.8105 20.3568C20.8289 20.3645 20.8457 20.3759 20.8597 20.39C20.8738 20.4041 20.8852 20.4208 20.8929 20.4393C20.901 20.4584 20.905 20.4788 20.905 20.4996C20.905 20.5204 20.901 20.5409 20.8929 20.56C20.8852 20.5784 20.8738 20.5952 20.8597 20.6092C20.8457 20.6233 20.8289 20.6347 20.8105 20.6424C20.7913 20.6505 20.7709 20.6545 20.7501 20.6545C20.7293 20.6545 20.7089 20.6505 20.6898 20.6424C20.6713 20.6347 20.6546 20.6233 20.6405 20.6092C20.6264 20.5952 20.615 20.5784 20.6073 20.56C20.5992 20.5409 20.5952 20.5204 20.5952 20.4996C20.5952 20.4788 20.5992 20.4584 20.6073 20.4393C20.615 20.4208 20.6264 20.4041 20.6405 20.39C20.6546 20.3759 20.6713 20.3645 20.6898 20.3568C20.7089 20.3488 20.7293 20.3447 20.7501 20.3447ZM20.7501 20.6498C20.7702 20.6498 20.79 20.6458 20.8084 20.6381C20.8262 20.6304 20.8423 20.6196 20.8561 20.6059C20.8698 20.5922 20.8805 20.5761 20.8882 20.5583C20.8959 20.5398 20.9 20.5201 20.9 20.5C20.9 20.4798 20.8959 20.4601 20.8882 20.4416C20.8805 20.4238 20.8698 20.4078 20.8561 20.394C20.8423 20.3803 20.8262 20.3695 20.8084 20.3618C20.79 20.3541 20.7702 20.3501 20.7501 20.3501C20.73 20.3501 20.7102 20.3541 20.6918 20.3618C20.674 20.3695 20.6579 20.3803 20.6442 20.394C20.6304 20.4078 20.6197 20.4238 20.612 20.4416C20.6043 20.4601 20.6002 20.4798 20.6002 20.5C20.6002 20.5201 20.6043 20.5398 20.612 20.5583C20.6197 20.5761 20.6304 20.5922 20.6442 20.6059C20.6579 20.6196 20.674 20.6304 20.6918 20.6381C20.7102 20.6458 20.73 20.6498 20.7501 20.6498Z" fill="white"/>
<path d="M21.0604 20.5001C21.0604 20.5212 21.0524 20.5413 21.0359 20.5605C21.0202 20.5789 20.9981 20.5957 20.9696 20.6097C20.9411 20.6238 20.9079 20.6352 20.871 20.6429C20.8328 20.651 20.7922 20.655 20.7503 20.655C20.7084 20.655 20.6678 20.651 20.6296 20.6429C20.5927 20.6352 20.5595 20.6238 20.531 20.6097C20.5025 20.5957 20.4801 20.5789 20.4647 20.5605C20.4486 20.5413 20.4402 20.5209 20.4402 20.5001C20.4402 20.4793 20.4482 20.4589 20.4647 20.4398C20.4804 20.4213 20.5025 20.4046 20.531 20.3905C20.5595 20.3764 20.5927 20.365 20.6296 20.3573C20.6678 20.3492 20.7084 20.3452 20.7503 20.3452C20.7922 20.3452 20.8328 20.3492 20.871 20.3573C20.9079 20.365 20.9411 20.3764 20.9696 20.3905C20.9981 20.4046 21.0205 20.4213 21.0359 20.4398C21.052 20.4589 21.0604 20.4793 21.0604 20.5001ZM20.4499 20.5001C20.4499 20.5202 20.458 20.54 20.4734 20.5584C20.4885 20.5762 20.5103 20.5923 20.5377 20.6061C20.5652 20.6198 20.5974 20.6305 20.633 20.6382C20.6698 20.6459 20.7091 20.65 20.7496 20.65C20.7902 20.65 20.8294 20.6459 20.8663 20.6382C20.9022 20.6305 20.934 20.6198 20.9615 20.6061C20.989 20.5923 21.0108 20.5762 21.0259 20.5584C21.0416 20.54 21.0494 20.5202 21.0494 20.5001C21.0494 20.48 21.0413 20.4602 21.0259 20.4418C21.0108 20.424 20.989 20.4079 20.9615 20.3942C20.934 20.3804 20.9018 20.3697 20.8663 20.362C20.8294 20.3543 20.7902 20.3502 20.7496 20.3502C20.7091 20.3502 20.6698 20.3543 20.633 20.362C20.5971 20.3697 20.5652 20.3804 20.5377 20.3942C20.5103 20.4079 20.4885 20.424 20.4734 20.4418C20.4576 20.4602 20.4499 20.48 20.4499 20.5001Z" fill="white"/>
<path d="M20.7501 20.8107C20.7082 20.8107 20.6676 20.8026 20.6294 20.7862C20.5925 20.7704 20.5593 20.7483 20.5308 20.7198C20.5023 20.6913 20.4798 20.6581 20.4644 20.6212C20.4483 20.583 20.4399 20.5425 20.4399 20.5005C20.4399 20.4586 20.448 20.4181 20.4644 20.3799C20.4802 20.343 20.5023 20.3098 20.5308 20.2813C20.5593 20.2528 20.5925 20.2303 20.6294 20.2149C20.6676 20.1988 20.7082 20.1904 20.7501 20.1904C20.792 20.1904 20.8325 20.1985 20.8708 20.2149C20.9076 20.2307 20.9408 20.2528 20.9693 20.2813C20.9978 20.3098 21.0203 20.343 21.0357 20.3799C21.0518 20.4181 21.0602 20.4586 21.0602 20.5005C21.0602 20.5425 21.0521 20.583 21.0357 20.6212C21.0199 20.6581 20.9978 20.6913 20.9693 20.7198C20.9408 20.7483 20.9076 20.7708 20.8708 20.7862C20.8325 20.8023 20.792 20.8107 20.7501 20.8107ZM20.7501 20.2002C20.7095 20.2002 20.6703 20.2082 20.6334 20.2236C20.5975 20.2387 20.5657 20.2605 20.5382 20.288C20.5107 20.3155 20.4889 20.3477 20.4738 20.3832C20.458 20.4201 20.4503 20.4593 20.4503 20.4999C20.4503 20.5404 20.4584 20.5797 20.4738 20.6166C20.4889 20.6524 20.5107 20.6843 20.5382 20.7118C20.5657 20.7393 20.5979 20.761 20.6334 20.7761C20.6703 20.7919 20.7095 20.7996 20.7501 20.7996C20.7906 20.7996 20.8299 20.7916 20.8667 20.7761C20.9026 20.761 20.9345 20.7393 20.9619 20.7118C20.9894 20.6843 21.0112 20.6521 21.0263 20.6166C21.0421 20.5797 21.0498 20.5404 21.0498 20.4999C21.0498 20.4593 21.0417 20.4201 21.0263 20.3832C21.0112 20.3473 20.9894 20.3155 20.9619 20.288C20.9345 20.2605 20.9023 20.2387 20.8667 20.2236C20.8299 20.2079 20.7906 20.2002 20.7501 20.2002Z" fill="white"/>
<path d="M20.1292 20.5001C20.1292 20.4582 20.1456 20.4176 20.1781 20.3794C20.2093 20.3425 20.2542 20.3093 20.3112 20.2808C20.3682 20.2523 20.4346 20.2298 20.5087 20.2144C20.5851 20.1983 20.6666 20.1899 20.7504 20.1899C20.8342 20.1899 20.9157 20.198 20.9921 20.2144C21.0662 20.2302 21.1326 20.2523 21.1896 20.2808C21.2466 20.3093 21.2915 20.3425 21.3227 20.3794C21.3552 20.4176 21.3716 20.4582 21.3716 20.5001C21.3716 20.542 21.3552 20.5825 21.3227 20.6208C21.2915 20.6576 21.2466 20.6908 21.1896 20.7193C21.1326 20.7478 21.0662 20.7703 20.9921 20.7857C20.9157 20.8018 20.8342 20.8102 20.7504 20.8102C20.6666 20.8102 20.5851 20.8021 20.5087 20.7857C20.4346 20.7699 20.3682 20.7478 20.3112 20.7193C20.2542 20.6908 20.2093 20.6576 20.1781 20.6208C20.1456 20.5825 20.1292 20.542 20.1292 20.5001ZM21.3502 20.5001C21.3502 20.4595 21.3344 20.4203 21.3029 20.3834C21.2727 20.3475 21.2295 20.3157 21.1742 20.2882C21.1188 20.2607 21.0548 20.2389 20.9834 20.2238C20.9093 20.208 20.8309 20.2003 20.7497 20.2003C20.6686 20.2003 20.5901 20.2084 20.516 20.2238C20.4446 20.2389 20.3803 20.2607 20.3253 20.2882C20.2703 20.3157 20.227 20.3479 20.1965 20.3834C20.1654 20.4203 20.1493 20.4595 20.1493 20.5001C20.1493 20.5406 20.165 20.5799 20.1965 20.6167C20.2267 20.6526 20.27 20.6845 20.3253 20.7119C20.3806 20.7394 20.4446 20.7612 20.516 20.7763C20.5901 20.7921 20.6686 20.7998 20.7497 20.7998C20.8309 20.7998 20.9093 20.7917 20.9834 20.7763C21.0548 20.7612 21.1192 20.7394 21.1742 20.7119C21.2291 20.6845 21.2724 20.6523 21.3029 20.6167C21.3341 20.5799 21.3502 20.5406 21.3502 20.5001Z" fill="white"/>
<path d="M20.7501 19.8794C20.834 19.8794 20.9154 19.8958 20.9919 19.9283C21.066 19.9595 21.1323 20.0044 21.1893 20.0614C21.2463 20.1184 21.2913 20.1848 21.3224 20.2589C21.355 20.3354 21.3714 20.4168 21.3714 20.5006C21.3714 20.5845 21.355 20.6659 21.3224 20.7424C21.2913 20.8165 21.2463 20.8828 21.1893 20.9398C21.1323 20.9968 21.066 21.0418 20.9919 21.0729C20.9154 21.1055 20.834 21.1219 20.7501 21.1219C20.6663 21.1219 20.5849 21.1055 20.5084 21.0729C20.4343 21.0418 20.3679 20.9968 20.311 20.9398C20.254 20.8828 20.209 20.8165 20.1779 20.7424C20.1453 20.6659 20.1289 20.5845 20.1289 20.5006C20.1289 20.4168 20.1453 20.3354 20.1779 20.2589C20.209 20.1848 20.254 20.1184 20.311 20.0614C20.3679 20.0044 20.4343 19.9595 20.5084 19.9283C20.5849 19.8958 20.6663 19.8794 20.7501 19.8794ZM20.7501 21.1004C20.8313 21.1004 20.9097 21.0847 20.9838 21.0532C21.0552 21.023 21.1196 20.9797 21.1746 20.9244C21.2296 20.8691 21.2728 20.8051 21.3033 20.7336C21.3345 20.6596 21.3506 20.5811 21.3506 20.5C21.3506 20.4188 21.3348 20.3404 21.3033 20.2663C21.2732 20.1949 21.2299 20.1305 21.1746 20.0755C21.1196 20.0205 21.0552 19.9773 20.9838 19.9468C20.9097 19.9156 20.8313 19.8995 20.7501 19.8995C20.669 19.8995 20.5906 19.9153 20.5165 19.9468C20.4451 19.977 20.3807 20.0202 20.3257 20.0755C20.2707 20.1305 20.2275 20.1949 20.197 20.2663C20.1658 20.3404 20.1497 20.4188 20.1497 20.5C20.1497 20.5811 20.1654 20.6596 20.197 20.7336C20.2271 20.8051 20.2704 20.8694 20.3257 20.9244C20.3807 20.9794 20.4451 21.0226 20.5165 21.0532C20.5906 21.0843 20.669 21.1004 20.7501 21.1004Z" fill="white"/>
<path d="M21.9919 20.5001C21.9919 20.584 21.9591 20.6654 21.8944 20.7419C21.8317 20.816 21.7422 20.8823 21.6282 20.9393C21.5142 20.9963 21.3814 21.0413 21.2336 21.0724C21.0804 21.105 20.9177 21.1214 20.7501 21.1214C20.5825 21.1214 20.4199 21.105 20.2667 21.0724C20.1188 21.0413 19.9861 20.9963 19.8721 20.9393C19.7581 20.8823 19.6686 20.816 19.6059 20.7419C19.5412 20.6654 19.5083 20.584 19.5083 20.5001C19.5083 20.4163 19.5412 20.3349 19.6059 20.2584C19.6686 20.1843 19.7581 20.1179 19.8721 20.061C19.9861 20.004 20.1188 19.959 20.2667 19.9279C20.4199 19.8953 20.5825 19.8789 20.7501 19.8789C20.9177 19.8789 21.0804 19.8953 21.2336 19.9279C21.3814 19.959 21.5142 20.004 21.6282 20.061C21.7422 20.1179 21.8317 20.1843 21.8944 20.2584C21.9591 20.3349 21.9919 20.4163 21.9919 20.5001ZM19.5499 20.5001C19.5499 20.5813 19.5817 20.6597 19.6441 20.7338C19.7044 20.8052 19.7909 20.8696 19.9012 20.9246C20.0115 20.9796 20.1399 21.0228 20.2828 21.0533C20.4306 21.0845 20.5878 21.1006 20.7498 21.1006C20.9117 21.1006 21.069 21.0848 21.2168 21.0533C21.3596 21.0232 21.488 20.9799 21.5983 20.9246C21.7086 20.8696 21.7951 20.8052 21.8555 20.7338C21.9182 20.6597 21.9497 20.5813 21.9497 20.5001C21.9497 20.419 21.9178 20.3406 21.8555 20.2665C21.7951 20.1951 21.7086 20.1307 21.5983 20.0757C21.488 20.0207 21.3596 19.9775 21.2168 19.947C21.069 19.9158 20.9117 19.8997 20.7498 19.8997C20.5878 19.8997 20.4306 19.9154 20.2828 19.947C20.1399 19.9771 20.0115 20.0204 19.9012 20.0757C19.7909 20.1307 19.7044 20.1951 19.6441 20.2665C19.5814 20.3406 19.5499 20.419 19.5499 20.5001Z" fill="white"/>
<path d="M20.7501 21.7419C20.5825 21.7419 20.4199 21.7091 20.2667 21.6444C20.1188 21.5817 19.9861 21.4922 19.8721 21.3782C19.7581 21.2642 19.6686 21.1314 19.6059 20.9836C19.5412 20.8304 19.5083 20.6677 19.5083 20.5001C19.5083 20.3325 19.5412 20.1699 19.6059 20.0167C19.6686 19.8688 19.7581 19.7361 19.8721 19.6221C19.9861 19.5081 20.1188 19.4186 20.2667 19.3559C20.4199 19.2912 20.5825 19.2583 20.7501 19.2583C20.9177 19.2583 21.0804 19.2912 21.2336 19.3559C21.3814 19.4186 21.5142 19.5081 21.6282 19.6221C21.7422 19.7361 21.8317 19.8688 21.8944 20.0167C21.9591 20.1699 21.9919 20.3325 21.9919 20.5001C21.9919 20.6677 21.9591 20.8304 21.8944 20.9836C21.8317 21.1314 21.7422 21.2642 21.6282 21.3782C21.5142 21.4922 21.3814 21.5817 21.2336 21.6444C21.0804 21.7091 20.9177 21.7419 20.7501 21.7419ZM20.7501 19.2999C20.5882 19.2999 20.4309 19.3317 20.2831 19.3941C20.1403 19.4544 20.0119 19.5409 19.9016 19.6512C19.7913 19.7615 19.7048 19.8899 19.6444 20.0328C19.5817 20.1806 19.5502 20.3378 19.5502 20.4998C19.5502 20.6617 19.5821 20.819 19.6444 20.9668C19.7048 21.1096 19.7913 21.238 19.9016 21.3483C20.0119 21.4586 20.1403 21.5451 20.2831 21.6055C20.4309 21.6682 20.5882 21.6997 20.7501 21.6997C20.912 21.6997 21.0693 21.6678 21.2171 21.6055C21.36 21.5451 21.4884 21.4586 21.5987 21.3483C21.709 21.238 21.7955 21.1096 21.8558 20.9668C21.9185 20.819 21.95 20.6617 21.95 20.4998C21.95 20.3378 21.9182 20.1806 21.8558 20.0328C21.7955 19.8899 21.709 19.7615 21.5987 19.6512C21.4884 19.5409 21.36 19.4544 21.2171 19.3941C21.0693 19.3314 20.912 19.2999 20.7501 19.2999Z" fill="white"/>
<path d="M18.2664 20.5001C18.2664 20.3325 18.3321 20.1699 18.4615 20.0167C18.5865 19.8688 18.7656 19.7361 18.9939 19.6221C19.2219 19.5081 19.4877 19.4186 19.7834 19.3559C20.0895 19.2912 20.4151 19.2583 20.7503 19.2583C21.0856 19.2583 21.4108 19.2912 21.7172 19.3559C22.0129 19.4186 22.2785 19.5081 22.5068 19.6221C22.7347 19.7361 22.9138 19.8688 23.0392 20.0167C23.1686 20.1699 23.2343 20.3325 23.2343 20.5001C23.2343 20.6677 23.1686 20.8304 23.0392 20.9836C22.9141 21.1314 22.7351 21.2642 22.5068 21.3782C22.2788 21.4922 22.0129 21.5817 21.7172 21.6444C21.4111 21.7091 21.0856 21.7419 20.7503 21.7419C20.4151 21.7419 20.0899 21.7091 19.7834 21.6444C19.4877 21.5817 19.2222 21.4922 18.9939 21.3782C18.7659 21.2642 18.5869 21.1314 18.4615 20.9836C18.3321 20.8304 18.2664 20.6677 18.2664 20.5001ZM23.1501 20.5001C23.1501 20.3382 23.0868 20.1809 22.9614 20.0331C22.8404 19.8903 22.6674 19.7619 22.4471 19.6516C22.2268 19.5413 21.97 19.4548 21.684 19.3944C21.3883 19.3317 21.0739 19.3002 20.75 19.3002C20.4261 19.3002 20.1116 19.3321 19.8159 19.3944C19.5303 19.4548 19.2735 19.5413 19.0529 19.6516C18.8326 19.7619 18.6593 19.8903 18.5386 20.0331C18.4135 20.1809 18.3498 20.3382 18.3498 20.5001C18.3498 20.662 18.4132 20.8193 18.5386 20.9671C18.6596 21.11 18.8326 21.2384 19.0529 21.3487C19.2732 21.459 19.53 21.5455 19.8159 21.6058C20.1116 21.6685 20.4261 21.7 20.75 21.7C21.0739 21.7 21.3883 21.6682 21.684 21.6058C21.9697 21.5455 22.2265 21.459 22.4471 21.3487C22.6674 21.2384 22.8407 21.11 22.9614 20.9671C23.0864 20.8193 23.1501 20.662 23.1501 20.5001Z" fill="white"/>
<path d="M20.7501 18.0166C21.0853 18.0166 21.4105 18.0823 21.717 18.2117C22.0127 18.3368 22.2782 18.5158 22.5065 18.7441C22.7345 18.9721 22.9135 19.238 23.0389 19.5337C23.1683 19.8398 23.234 20.1653 23.234 20.5006C23.234 20.8358 23.1683 21.161 23.0389 21.4675C22.9139 21.7632 22.7348 22.0287 22.5065 22.257C22.2785 22.485 22.0127 22.664 21.717 22.7894C21.4109 22.9188 21.0853 22.9845 20.7501 22.9845C20.4148 22.9845 20.0896 22.9188 19.7832 22.7894C19.4875 22.6644 19.2219 22.4853 18.9936 22.257C18.7657 22.029 18.5863 21.7632 18.4612 21.4675C18.3318 21.1614 18.2661 20.8358 18.2661 20.5006C18.2661 20.1653 18.3318 19.8401 18.4612 19.5337C18.5863 19.238 18.7653 18.9724 18.9936 18.7441C19.2216 18.5161 19.4875 18.3371 19.7832 18.2117C20.0893 18.0823 20.4148 18.0166 20.7501 18.0166ZM20.7501 22.9004C21.0739 22.9004 21.3884 22.837 21.6841 22.7116C21.9698 22.5906 22.2266 22.4176 22.4472 22.1973C22.6678 21.9771 22.8408 21.7203 22.9615 21.4343C23.0865 21.1386 23.1502 20.8241 23.1502 20.5002C23.1502 20.1764 23.0869 19.8619 22.9615 19.5662C22.8404 19.2805 22.6675 19.0237 22.4472 18.8031C22.2269 18.5829 21.9701 18.4095 21.6841 18.2888C21.3884 18.1638 21.0739 18.1001 20.7501 18.1001C20.4262 18.1001 20.1117 18.1634 19.816 18.2888C19.5304 18.4099 19.2736 18.5829 19.053 18.8031C18.8327 19.0234 18.6594 19.2802 18.5387 19.5662C18.4136 19.8619 18.3499 20.1764 18.3499 20.5002C18.3499 20.8241 18.4133 21.1386 18.5387 21.4343C18.6597 21.7199 18.8327 21.9767 19.053 22.1973C19.2732 22.4176 19.5301 22.5909 19.816 22.7116C20.1117 22.8367 20.4262 22.9004 20.7501 22.9004Z" fill="white"/>
<path d="M25.7177 20.5001C25.7177 20.8353 25.5863 21.1605 25.3275 21.467C25.0774 21.7627 24.719 22.0282 24.263 22.2565C23.8067 22.4845 23.2757 22.6635 22.6839 22.7889C22.0714 22.9183 21.421 22.984 20.7505 22.984C20.0799 22.984 19.4292 22.9183 18.817 22.7889C18.2256 22.6639 17.6942 22.4848 17.2379 22.2565C16.7816 22.0285 16.4236 21.7627 16.1735 21.467C15.9143 21.1609 15.7832 20.8353 15.7832 20.5001C15.7832 20.1648 15.9146 19.8396 16.1735 19.5332C16.4236 19.2375 16.782 18.9719 17.2379 18.7436C17.6942 18.5157 18.2253 18.3363 18.817 18.2112C19.4295 18.0818 20.0799 18.0161 20.7505 18.0161C21.421 18.0161 22.0717 18.0818 22.6839 18.2112C23.2753 18.3363 23.8067 18.5153 24.263 18.7436C24.7193 18.9716 25.0774 19.2375 25.3275 19.5332C25.5866 19.8393 25.7177 20.1648 25.7177 20.5001ZM15.9502 20.5001C15.9502 20.8239 16.0772 21.1384 16.3273 21.4341C16.5691 21.7198 16.9151 21.9766 17.3559 22.1972C17.7968 22.4175 18.3101 22.5908 18.8817 22.7115C19.4734 22.8365 20.1021 22.9002 20.7501 22.9002C21.3982 22.9002 22.0268 22.8369 22.6186 22.7115C23.1902 22.5904 23.7035 22.4175 24.1443 22.1972C24.5852 21.9769 24.9312 21.7201 25.1729 21.4341C25.4234 21.1384 25.5501 20.8239 25.5501 20.5001C25.5501 20.1762 25.423 19.8617 25.1729 19.566C24.9312 19.2804 24.5852 19.0236 24.1443 18.803C23.7035 18.5827 23.1902 18.4094 22.6186 18.2887C22.0268 18.1636 21.3982 18.0999 20.7501 18.0999C20.1021 18.0999 19.4734 18.1633 18.8817 18.2887C18.3101 18.4097 17.7968 18.5827 17.3559 18.803C16.9151 19.0232 16.5691 19.2801 16.3273 19.566C16.0769 19.8617 15.9502 20.1762 15.9502 20.5001Z" fill="white"/>
<path d="M20.75 25.4677C20.0794 25.4677 19.4287 25.3363 18.8165 25.0775C18.2251 24.8274 17.6937 24.469 17.2374 24.013C16.7811 23.5567 16.4231 23.0257 16.173 22.4339C15.9138 21.8214 15.7827 21.171 15.7827 20.5005C15.7827 19.8299 15.9141 19.1792 16.173 18.567C16.4231 17.9756 16.7815 17.4442 17.2374 16.9879C17.6937 16.5316 18.2248 16.1736 18.8165 15.9235C19.429 15.6643 20.0794 15.5332 20.75 15.5332C21.4205 15.5332 22.0713 15.6646 22.6834 15.9235C23.2748 16.1736 23.8062 16.532 24.2625 16.9879C24.7188 17.4442 25.0769 17.9753 25.327 18.567C25.5862 19.1795 25.7172 19.8299 25.7172 20.5005C25.7172 21.171 25.5858 21.8217 25.327 22.4339C25.0769 23.0253 24.7185 23.5567 24.2625 24.013C23.8062 24.4693 23.2752 24.8274 22.6834 25.0775C22.0709 25.3366 21.4205 25.4677 20.75 25.4677ZM20.75 15.7002C20.1019 15.7002 19.4733 15.8272 18.8816 16.0773C18.3099 16.3191 17.7966 16.6651 17.3558 17.1059C16.9149 17.5468 16.5689 18.0601 16.3272 18.6317C16.0767 19.2234 15.95 19.8521 15.95 20.5001C15.95 21.1482 16.0771 21.7768 16.3272 22.3686C16.5689 22.9402 16.9149 23.4535 17.3558 23.8943C17.7966 24.3352 18.3099 24.6812 18.8816 24.9229C19.4733 25.1734 20.1019 25.3001 20.75 25.3001C21.398 25.3001 22.0267 25.173 22.6184 24.9229C23.19 24.6812 23.7033 24.3352 24.1442 23.8943C24.5851 23.4535 24.931 22.9402 25.1728 22.3686C25.4232 21.7768 25.5499 21.1482 25.5499 20.5001C25.5499 19.8521 25.4229 19.2234 25.1728 18.6317C24.931 18.0601 24.5851 17.5468 24.1442 17.1059C23.7033 16.6651 23.19 16.3191 22.6184 16.0773C22.0267 15.8269 21.398 15.7002 20.75 15.7002Z" fill="white"/>
<path d="M10.8152 20.5C10.8152 19.8294 11.078 19.1787 11.596 18.5665C12.0966 17.9751 12.8127 17.4437 13.7253 16.9874C14.6375 16.5311 15.7 16.1731 16.8831 15.923C18.1082 15.6638 19.4093 15.5327 20.7504 15.5327C22.0914 15.5327 23.3926 15.6641 24.6176 15.923C25.8008 16.1731 26.8632 16.5315 27.7755 16.9874C28.6877 17.4437 29.4042 17.9748 29.9048 18.5665C30.4227 19.179 30.6856 19.8294 30.6856 20.5C30.6856 21.1705 30.4227 21.8213 29.9048 22.4334C29.4042 23.0248 28.6881 23.5562 27.7755 24.0125C26.8632 24.4688 25.8008 24.8269 24.6176 25.077C23.3926 25.3362 22.0914 25.4672 20.7504 25.4672C19.4093 25.4672 18.1082 25.3358 16.8831 25.077C15.7 24.8269 14.6375 24.4685 13.7253 24.0125C12.813 23.5562 12.0966 23.0252 11.596 22.4334C11.078 21.8209 10.8152 21.1705 10.8152 20.5ZM30.3503 20.5C30.3503 19.8519 30.0965 19.2233 29.596 18.6316C29.1125 18.0599 28.4202 17.5466 27.5385 17.1058C26.6567 16.6649 25.6301 16.3189 24.4869 16.0772C23.3034 15.8267 22.0462 15.7 20.75 15.7C19.4539 15.7 18.1967 15.8271 17.0132 16.0772C15.87 16.3189 14.8434 16.6649 13.9616 17.1058C13.0799 17.5466 12.3876 18.0599 11.9041 18.6316C11.4036 19.2233 11.1498 19.8519 11.1498 20.5C11.1498 21.148 11.4036 21.7767 11.9041 22.3684C12.3876 22.94 13.0799 23.4533 13.9616 23.8942C14.8434 24.3351 15.87 24.681 17.0132 24.9228C18.1967 25.1732 19.4539 25.2999 20.75 25.2999C22.0462 25.2999 23.3034 25.1729 24.4869 24.9228C25.6301 24.681 26.6567 24.3351 27.5385 23.8942C28.4202 23.4533 29.1125 22.94 29.596 22.3684C30.0965 21.7767 30.3503 21.148 30.3503 20.5Z" fill="white"/>
<path d="M20.7501 10.5649C22.0912 10.5649 23.3923 10.8278 24.6174 11.3458C25.8005 11.8463 26.863 12.5624 27.7752 13.475C28.6875 14.3873 29.404 15.4497 29.9045 16.6329C30.4225 17.8579 30.6853 19.1591 30.6853 20.5001C30.6853 21.8412 30.4225 23.1423 29.9045 24.3674C29.404 25.5505 28.6878 26.613 27.7752 27.5252C26.863 28.4375 25.8005 29.154 24.6174 29.6545C23.3923 30.1725 22.0912 30.4353 20.7501 30.4353C19.4091 30.4353 18.1079 30.1725 16.8829 29.6545C15.6997 29.154 14.6373 28.4378 13.725 27.5252C12.8128 26.613 12.0963 25.5505 11.5958 24.3674C11.0778 23.1423 10.8149 21.8412 10.8149 20.5001C10.8149 19.1591 11.0778 17.8579 11.5958 16.6329C12.096 15.4497 12.8124 14.3873 13.725 13.475C14.6373 12.5628 15.6997 11.8463 16.8829 11.3458C18.1079 10.8278 19.4091 10.5649 20.7501 10.5649ZM20.7501 30.1001C22.0463 30.1001 23.3035 29.8463 24.487 29.3457C25.6302 28.8623 26.6568 28.17 27.5386 27.2882C28.4203 26.4065 29.1126 25.3799 29.5961 24.2366C30.0966 23.0532 30.3504 21.7959 30.3504 20.4998C30.3504 19.2037 30.0966 17.9464 29.5961 16.763C29.1126 15.6197 28.4203 14.5931 27.5386 13.7114C26.6568 12.8296 25.6302 12.1373 24.487 11.6539C23.3035 11.1533 22.0463 10.8995 20.7501 10.8995C19.454 10.8995 18.1968 11.1533 17.0133 11.6539C15.87 12.1373 14.8435 12.8296 13.9617 13.7114C13.08 14.5931 12.3877 15.6197 11.9042 16.763C11.4037 17.9464 11.1499 19.2037 11.1499 20.4998C11.1499 21.7959 11.4037 23.0532 11.9042 24.2366C12.3877 25.3799 13.08 26.4065 13.9617 27.2882C14.8435 28.17 15.87 28.8623 17.0133 29.3457C18.1968 29.8463 19.454 30.1001 20.7501 30.1001Z" fill="white"/>
<path d="M40.62 20.5001C40.62 21.8412 40.0946 23.1423 39.0583 24.3674C38.0576 25.5505 36.625 26.613 34.8002 27.5252C32.9753 28.4375 30.8504 29.154 28.4845 29.6545C26.0347 30.1725 23.4324 30.4353 20.7499 30.4353C18.0675 30.4353 15.4655 30.1725 13.0154 29.6545C10.6491 29.154 8.52422 28.4378 6.69972 27.5252C4.87488 26.613 3.4423 25.5505 2.44154 24.3674C1.40524 23.1423 0.879883 21.8412 0.879883 20.5001C0.879883 19.1591 1.40524 17.8579 2.44154 16.6329C3.4423 15.4497 4.87488 14.3873 6.69972 13.475C8.52456 12.5628 10.6495 11.8463 13.0154 11.3458C15.4652 10.8278 18.0675 10.5649 20.7499 10.5649C23.4324 10.5649 26.0344 10.8278 28.4845 11.3458C30.8504 11.846 32.9757 12.5624 34.8002 13.475C36.625 14.3873 38.0576 15.4497 39.0583 16.6329C40.0946 17.8579 40.62 19.1591 40.62 20.5001ZM1.5494 20.5001C1.5494 21.7963 2.05699 23.0535 3.05809 24.237C4.02499 25.3802 5.40963 26.4068 7.17311 27.2886C8.9366 28.1703 10.9901 28.8626 13.2762 29.3461C15.6432 29.8466 18.1577 30.1004 20.7499 30.1004C23.3422 30.1004 25.8567 29.8466 28.2236 29.3461C30.5101 28.8626 32.5633 28.1703 34.3268 27.2886C36.0903 26.4068 37.4746 25.3802 38.4418 24.237C39.4429 23.0535 39.9505 21.7963 39.9505 20.5001C39.9505 19.204 39.4429 17.9468 38.4418 16.7633C37.4749 15.62 36.0903 14.5935 34.3268 13.7117C32.5633 12.83 30.5098 12.1377 28.2236 11.6542C25.8567 11.1537 23.3422 10.8999 20.7499 10.8999C18.1577 10.8999 15.6432 11.1537 13.2762 11.6542C10.9898 12.1377 8.9366 12.83 7.17311 13.7117C5.40963 14.5935 4.02532 15.62 3.05809 16.7633C2.05699 17.9468 1.5494 19.204 1.5494 20.5001Z" fill="white"/>
<path d="M20.7499 40.37C18.0675 40.37 15.4655 39.8446 13.0154 38.8083C10.6491 37.8076 8.52422 36.375 6.69972 34.5502C4.87488 32.7253 3.4423 30.6004 2.44154 28.2345C1.40524 25.7844 0.879883 23.1824 0.879883 20.4999C0.879883 17.8175 1.40524 15.2155 2.44154 12.7654C3.4423 10.3991 4.87488 8.27422 6.69972 6.44972C8.52456 4.62488 10.6495 3.1923 13.0154 2.19154C15.4655 1.15524 18.0675 0.629883 20.7499 0.629883C23.4324 0.629883 26.0344 1.15524 28.4845 2.19154C30.8508 3.1923 32.9757 4.62488 34.8002 6.44972C36.625 8.27456 38.0576 10.3995 39.0583 12.7654C40.0946 15.2152 40.62 17.8175 40.62 20.4999C40.62 23.1824 40.0946 25.7844 39.0583 28.2345C38.0576 30.6004 36.625 32.7257 34.8002 34.5502C32.9753 36.375 30.8504 37.8076 28.4845 38.8083C26.0347 39.8446 23.4324 40.37 20.7499 40.37ZM20.7499 1.2994C18.1577 1.2994 15.6432 1.80699 13.2762 2.80809C10.9898 3.77499 8.9366 5.15963 7.17311 6.92311C5.40963 8.6866 4.02532 10.7401 3.05809 13.0262C2.05699 15.3932 1.5494 17.9077 1.5494 20.4999C1.5494 23.0922 2.05699 25.6067 3.05809 27.9736C4.02499 30.2601 5.40963 32.3133 7.17311 34.0768C8.9366 35.8403 10.9901 37.2246 13.2762 38.1918C15.6432 39.1929 18.1577 39.7005 20.7499 39.7005C23.3422 39.7005 25.8567 39.1929 28.2236 38.1918C30.5101 37.2249 32.5633 35.8403 34.3268 34.0768C36.0903 32.3133 37.4746 30.2598 38.4418 27.9736C39.4429 25.6067 39.9505 23.0922 39.9505 20.4999C39.9505 17.9077 39.4429 15.3932 38.4418 13.0262C37.4749 10.7398 36.0903 8.6866 34.3268 6.92311C32.5633 5.15963 30.5098 3.77532 28.2236 2.80809C25.8567 1.80699 23.3422 1.2994 20.7499 1.2994Z" fill="white"/>
</svg>
