<svg width="57" height="35" viewBox="0 0 57 35" fill="none" xmlns="http://www.w3.org/2000/svg">
<g clip-path="url(#clip0_64_3377)">
<path d="M2.27446 10.6252C3.72009 8.54277 5.78489 6.67543 8.4121 5.07485C13.7832 1.80214 20.9171 0 28.5 0C36.0829 0 43.2172 1.80214 48.5883 5.07485C51.2151 6.67543 53.2803 8.54277 54.7259 10.6252C56.2346 12.7991 57 15.1121 57 17.5002C57 19.8883 56.2346 22.2009 54.7255 24.3752C53.2799 26.4576 51.2151 28.325 48.5879 29.9255C43.2168 33.1983 36.0829 35.0004 28.4996 35.0004C20.9163 35.0004 13.7828 33.1983 8.4117 29.9255C5.78489 28.325 3.7197 26.4576 2.27407 24.3752C0.764981 22.2013 -0.000398364 19.8883 -0.000398364 17.5002C-0.000398364 15.1121 0.764981 12.7994 2.27407 10.6252H2.27446ZM46.7087 17.5002C46.7087 15.7144 46.3966 13.9746 45.8196 12.322C43.2058 11.8067 40.2775 11.4167 37.1474 11.1643C37.5123 12.9509 37.7173 14.8548 37.7567 16.8164C39.6544 17.1066 41.9596 17.3014 44.8091 17.5002C41.9592 17.6986 39.654 17.8938 37.7567 18.1836C37.7173 20.1452 37.5119 22.0491 37.1474 23.8357C40.2775 23.5833 43.2058 23.1937 45.8196 22.678C46.397 21.0258 46.7087 19.286 46.7087 17.4998V17.5002ZM46.5984 22.5194C47.1829 22.3954 47.7606 22.2689 48.3089 22.1322C53.3812 20.8663 56.2902 19.1779 56.2902 17.5002C56.2902 15.8225 53.3812 14.1341 48.3089 12.8682C47.7606 12.7315 47.1829 12.605 46.5984 12.481C47.1151 14.0891 47.387 15.7748 47.387 17.5002C47.387 19.2256 47.1155 20.9113 46.5984 22.5194ZM19.9247 16.6975C24.2916 15.9263 26.248 14.4783 27.2699 10.8367C24.9687 10.8613 22.7147 10.9492 20.5522 11.1078C20.1797 12.8678 19.9716 14.7531 19.9247 16.6975ZM27.4418 10.1505C27.7539 8.82186 27.9782 7.22526 28.1607 5.30623V0.716403C26.0324 0.880596 24.0259 2.56148 22.4822 5.52648C21.7349 6.96207 21.1477 8.6195 20.7173 10.4121C22.8854 10.2574 25.1393 10.1712 27.4418 10.1501V10.1505ZM28.8389 5.30743C29.0214 7.22605 29.2461 8.82186 29.5578 10.1505C31.8599 10.1716 34.1138 10.2578 36.2823 10.4125C35.8519 8.6199 35.2647 6.96207 34.5174 5.52688C32.9737 2.56188 30.9672 0.880993 28.8389 0.716801V5.30782V5.30743ZM29.7297 10.8367C30.7516 14.4783 32.708 15.9263 37.0749 16.6975C37.028 14.7531 36.8195 12.8674 36.4474 11.1078C34.2849 10.9492 32.0309 10.8613 29.7297 10.8367ZM37.0749 18.3021C32.708 19.0733 30.7516 20.5213 29.7297 24.1629C32.0309 24.1383 34.2849 24.0504 36.4474 23.8918C36.8199 22.1318 37.028 20.2461 37.0749 18.3017V18.3021ZM29.5578 24.8495C29.2457 26.1781 29.0214 27.7739 28.8389 29.6926V34.2836C30.9672 34.1194 32.9737 32.4385 34.5174 29.4735C35.2647 28.0379 35.8519 26.3805 36.2823 24.5879C34.1142 24.7425 31.8599 24.8288 29.5578 24.8499V24.8495ZM28.1607 29.6938C27.9778 27.7747 27.7535 26.1785 27.4418 24.8495C25.1397 24.8284 22.8858 24.7422 20.7173 24.5875C21.1477 26.3801 21.7349 28.0379 22.4822 29.4731C24.0259 32.4381 26.0324 34.119 28.1607 34.2832V29.6934V29.6938ZM27.2699 24.1633C26.248 20.5217 24.2916 19.0733 19.9247 18.3025C19.9716 20.2469 20.1797 22.1326 20.5522 23.8926C22.7147 24.0512 24.9687 24.1391 27.2699 24.1637V24.1633ZM19.2433 18.1836C17.3456 17.8938 15.0404 17.6986 12.1909 17.5002C15.0408 17.3018 17.346 17.1066 19.2433 16.8164C19.2827 14.8548 19.4877 12.9509 19.8526 11.1643C16.7225 11.4167 13.7946 11.8063 11.1804 12.322C10.603 13.9746 10.2909 15.714 10.2909 17.5002C10.2909 19.2864 10.603 21.0262 11.1804 22.6784C13.7942 23.1937 16.7225 23.5837 19.8526 23.8361C19.4877 22.0495 19.2827 20.1456 19.2433 18.184V18.1836ZM9.61298 17.5002C9.61298 15.7748 9.88453 14.0891 10.4016 12.481C9.81713 12.605 9.23935 12.7315 8.69074 12.8682C3.61841 14.1341 0.709412 15.8225 0.709412 17.5002C0.709412 19.1779 3.61841 20.8663 8.69074 22.1322C9.23896 22.2689 9.81713 22.3954 10.4016 22.5194C9.88492 20.9113 9.61298 19.2256 9.61298 17.5002ZM0.837501 15.7219C1.2265 15.2918 1.73137 14.8723 2.40965 14.4724C3.85449 13.62 5.91298 12.8567 8.52797 12.2039C9.21846 12.0318 9.94049 11.8703 10.6866 11.7181C11.6123 9.26315 13.1108 7.007 15.1555 5.11541C16.9988 3.40987 19.1597 2.10985 21.5099 1.24277C10.4678 2.97932 2.064 8.70498 0.837501 15.7215V15.7219ZM15.6139 5.61951C13.7568 7.33737 12.3695 9.36691 11.4701 11.573C14.0622 11.0812 16.9361 10.7051 20.0063 10.4642C20.4529 8.53323 21.0791 6.74978 21.8815 5.20843C22.9137 3.2266 24.1584 1.78624 25.5201 0.925122C21.7858 1.49045 18.3404 3.09699 15.6139 5.61951ZM35.1181 5.20843C35.9205 6.74938 36.5467 8.53323 36.9933 10.4642C40.0635 10.7051 42.9374 11.0812 45.5295 11.573C44.6305 9.36731 43.2428 7.33737 41.3858 5.61951C38.6588 3.09699 35.2134 1.49045 31.4795 0.925122C32.8412 1.78624 34.0859 3.2266 35.1181 5.20843ZM35.4901 1.24277C37.8402 2.10985 40.0012 3.40987 41.8445 5.11541C43.8896 7.007 45.388 9.26355 46.3138 11.7185C47.0599 11.8704 47.7819 12.0318 48.4724 12.2039C51.0874 12.8563 53.1455 13.6196 54.5907 14.4724C55.269 14.8727 55.7735 15.2918 56.1629 15.7219C54.936 8.70498 46.5322 2.97932 35.4901 1.24277ZM56.1625 19.2781C55.7735 19.7082 55.2686 20.1277 54.5904 20.528C53.1455 21.3804 51.087 22.1437 48.472 22.7965C47.7819 22.9686 47.0595 23.13 46.3134 23.2819C45.3876 25.7368 43.8892 27.993 41.8441 29.8846C40.0008 31.5901 37.8399 32.8901 35.4897 33.7572C46.5322 32.0207 54.936 26.295 56.1625 19.2781ZM41.3861 29.3805C43.2432 27.6626 44.6305 25.6331 45.5299 23.4274C42.9378 23.9192 40.0639 24.2953 36.9937 24.5362C36.5471 26.4672 35.9209 28.2506 35.1185 29.792C34.0863 31.7738 32.8416 33.2142 31.4799 34.0753C35.2142 33.5099 38.6596 31.9034 41.3861 29.3809V29.3805ZM21.8819 29.7916C21.0795 28.2506 20.4532 26.4668 20.0067 24.5358C16.9365 24.2949 14.0626 23.9188 11.4705 23.427C12.3695 25.6327 13.7572 27.6626 15.6142 29.3801C18.3412 31.9026 21.7866 33.5092 25.5205 34.0745C24.1588 33.2134 22.9141 31.773 21.8819 29.7912V29.7916ZM21.5099 33.7572C19.1597 32.8901 16.9988 31.5901 15.1555 29.8846C13.1104 27.993 11.612 25.7368 10.6866 23.2819C9.94049 23.13 9.21846 22.9686 8.52797 22.7961C5.91298 22.1437 3.85449 21.3804 2.40965 20.5276C1.73137 20.1273 1.22689 19.7082 0.837501 19.2777C2.064 26.2946 10.4678 32.0199 21.5099 33.7568V33.7572Z" fill="white"/>
</g>
<defs>
<clipPath id="clip0_64_3377">
<rect width="57" height="35" fill="white" transform="matrix(-1 0 0 1 57 0)"/>
</clipPath>
</defs>
</svg>
