<?xml version="1.0" encoding="UTF-8"?>
<svg id="Layer_1" xmlns="http://www.w3.org/2000/svg" version="1.1" viewBox="0 0 42.5 42.5">
  <!-- Generator: Adobe Illustrator 29.5.0, SVG Export Plug-In . SVG Version: 2.1.0 Build 137)  -->
  <defs>
    <style>
      .st0 {
        fill: #e74600;
      }
    </style>
  </defs>
  <rect class="st0" width="42.5" height="42.5" rx="5.7" ry="5.7"/>
  <path id="avatar" d="M11.1,37.2c-.7.4-1.4,1-2.1,1.3-1.5.8-3.1,1.2-4.6,1.9-.7.3-1.4.8-2.2,1.1.9.6,2,.9,3.1.9h31.2c1.5,0,2.8-.6,3.9-1.5-.4-.2-.9-.4-1.3-.7-2.3-1.2-4.9-2.1-7.4-3.2-1-.4-1.7-1.3-3-1.4,0-2.2,1.6-3.2,1.7-5.5.2,0,.2,0,.3,0,.8-.3,1.5-4.4,1.3-5.4-.1-1,.3-1.5,0-2.1-.3,0-.5,0-.7,0,.4-2,.5-3.6.9-5.5.1-.5-.3-1.5-.3-1.7,0-.1.2-.2.2-.3,0-.1,0-1.6,0-1.6-.1-.2-.3-.2-.5-.7h-.3c0-.3-.1-.6-.3-.9-.2-.2-.2-.2-.5-.2,0-.2,0-.3,0-.4h0c0,0-.2,0-.3,0,0-.3,0-.3,0-.5-.3,0-.3-.1-.6,0-.4-.4-.4-1-.5-1.6-.2,0-.7.1-.9.4-.2-.2-.2-.3-.5-.4,0-.4,0-.3.3-.3,0-.2,0-.2-.2-.3-.1,0-.5,0-.7,0v-.5c-.6-.1-1.2-.8-1.7-.5-.3-.2-.6-.5-.6-.8-.6,0-1.3.6-1.7,0h-.2c0,.6,0,.4-.3.6-.2-.5-2.1-2.1-3.2-1.2-.4,0-.6.5-.8.8-.2,0-.4,0-.7,0,0,.2,0,.2,0,.3-.2.2-1.4.3-1.4.7-.7-.2-.7-.2-1.3,0-.2,0,0-.2-.3,0,0-.2,0,0,0-.2-.4,0-.5,0-.8.3-.2.3-.4.6-.4,1-1.2,0-.8.8-1.5,1.1-.1.2,0,0-.2,0-.2.3-.6.3-.9.6-.2.2-.4.5-.6.7-.5.6-.5,1.8-.5,2.7h-.3c0,.4-.2.8,0,1.1,0,0,.2.2.3.3.2.5-.2,1.2,0,1.7,0,.2.3.5.4.7.2.6.1,1.4.3,1.9.3,1.1,0,1.9.6,2.7v.2c-.2,0,0,0-.2,0-.4,0-.4,0-.7.2,0,2.1.4,3.7.9,5.3,0,.5.1,1,.2,1.5.2.4.7.5.9.9.5,1.4.7,3.1,1.8,4v1.1c0,0-2.7,1.2-2.9,1.3ZM30.4,22.6c-.1.1-.3.2-.4.3,0-.1,0,0,0-.3h.5ZM29.8,11.4h0c-.2.1-.1,0-.2,0h.2ZM25.7,7.9c.2,0,0,0,.2,0h.2c-.1,0-.2,0-.4,0v-.2ZM24.3,7.5c.3.1.4,0,.5.4.1.2,0,.1,0,.3-.1,0-.2,0-.4,0-.2,0,0,0-.2,0,0,0,0-.4,0-.6ZM20.2,6.8c-.1,0,0,.1-.2,0h.2ZM15.2,8.7v.3h0c0,0,0-.2,0-.3h.2ZM12.3,23c-.2,0-.3,0-.5,0,0-.2,0,0,0-.2h0c.2-.1.3-.1.4-.2.2.1.2.2.3.4,0,0,0,0,0,0Z"/>
</svg>